<?xml version="1.0" encoding="UTF-8"?>
<svg id="Layer_1" data-name="Layer 1" xmlns="http://www.w3.org/2000/svg" width="11in" height="8.5in" viewBox="0 0 792 612">
  <defs>
    <style>
      .cls-1 {
        fill: #222a41;
      }
    </style>
  </defs>
  <path class="cls-1" d="M556.52,245.51c-.62-6-5.99-10.37-12-9.75-75.24,7.8-127.74,37.69-149.27,82.86-21.4-44.78-73.27-74.6-147.55-82.68-6.05-.65-11.4,3.68-12.05,9.68-.65,6,3.68,11.4,9.68,12.05,6.51.71,12.8,1.62,18.91,2.68-8.89,18.24-10.59,38.82-4.58,58.3,3.37,10.93,8.98,20.76,16.32,29.1-13.39,17.19-23.1,37.31-28.08,58.42-1.51,6.39,2.45,12.8,8.85,14.31.92.22,1.83.32,2.74.32,5.39,0,10.27-3.69,11.57-9.16,4.13-17.52,12.14-34.24,23.17-48.59,1.43.88,2.84,1.78,4.34,2.57,11.92,6.3,24.73,9.33,37.39,9.33,17.15,0,33.99-5.59,47.88-16.15.32,3.21.5,6.46.5,9.79,0,6.04,4.89,10.93,10.93,10.93s10.93-4.89,10.93-10.93c0-3.66.2-7.25.58-10.77,14.15,11.05,31.64,16.96,49.38,16.96,12.6,0,25.31-2.97,37.03-9.16,1.61-.85,3.17-1.77,4.7-2.72,11.21,14.55,19.03,30.94,23.23,48.73,1.29,5.47,6.17,9.16,11.56,9.16.91,0,1.82-.1,2.74-.32,6.4-1.51,10.35-7.91,8.85-14.31-5.01-21.22-14.34-40.77-27.75-58.08-.16-.21-.36-.37-.53-.56,20.45-23.54,25.88-57.92,11.43-87.37,6.26-1.06,12.7-1.96,19.37-2.65,6-.62,10.37-5.99,9.75-12ZM308.78,346.29c-13.65-7.22-23.68-19.32-28.22-34.08-4.55-14.76-3.08-30.4,4.14-44.05.54-1.02.85-2.08,1.04-3.16,16.54,4.36,31.23,10.17,43.9,17.28-9.51,2.62-16.54,11.24-16.54,21.58,0,12.41,10.06,22.48,22.48,22.48s22.48-10.06,22.48-22.48c0-.02,0-.04,0-.05,8.87,9.16,15.6,19.48,20.03,30.8-17.64,19.02-45.86,24.06-69.29,11.67ZM482.97,346.29c-23.59,12.47-52.73,6.91-70.15-12.62,4.43-10.98,11.04-20.99,19.67-29.91,0,.04-.01.07-.01.11,0,12.41,10.06,22.48,22.48,22.48s22.48-10.06,22.48-22.48c0-10.36-7.04-18.99-16.58-21.6,12.97-7.28,28.06-13.2,45.1-17.59.18,1.18.51,2.36,1.1,3.47,14.9,28.18,4.09,63.23-24.09,78.13Z"/>
  <path class="cls-1" d="M307.13,236.15c1.95,0,3.92-.52,5.7-1.61,23.91-14.64,51.45-22.38,79.64-22.38s55.73,7.74,79.64,22.38c5.14,3.15,11.88,1.54,15.03-3.61,3.15-5.15,1.54-11.88-3.61-15.03-27.35-16.75-58.83-25.6-91.05-25.6s-63.71,8.85-91.05,25.6c-5.15,3.16-6.77,9.88-3.61,15.03,2.06,3.37,5.65,5.22,9.33,5.22Z"/>
</svg>