<?xml version="1.0" encoding="UTF-8"?>
<svg id="Layer_1" data-name="Layer 1" xmlns="http://www.w3.org/2000/svg" width="8.93in" height="4.82in" viewBox="0 0 643.19 347.14">
  <defs>
    <style>
      .cls-1 {
        fill: #222a41;
      }

      .cls-2 {
        fill: #ff5901;
      }
    </style>
  </defs>
  <path class="cls-2" d="M313.22,274.04c-6.79,0-12.6-5.09-12.6-12.8s5.81-12.8,12.6-12.8c2.82,0,4.99.75,6.73,1.67v5.32c-1.97-1.31-3.74-2.03-6.17-2.03-4.17,0-7.74,3.08-7.74,7.84s3.58,7.88,7.74,7.88c2.43,0,4.2-.82,6.17-2.17v5.38c-1.77.95-3.91,1.71-6.73,1.71Z"/>
  <path class="cls-2" d="M322.44,264.45c0-5.81,3.97-9.62,8.07-9.62,2.72,0,4.76,1.38,5.94,3.25h.03l.53-2.79h4.43v18.18h-4.43l-.53-2.79h-.03c-1.18,1.9-3.22,3.25-5.94,3.25-4.1,0-8.07-3.81-8.07-9.48ZM332.05,269.21c2.43,0,4.23-2,4.23-4.82s-1.8-4.82-4.23-4.82-4.33,2.07-4.33,4.82,1.84,4.82,4.33,4.82Z"/>
  <path class="cls-2" d="M345.8,255.3h4.17l.53,2.72h.07c1.21-2.2,3.31-2.92,4.92-2.92.56,0,.98.03,1.38.13v4.92c-.49-.13-1.02-.16-1.51-.16-2.2,0-4.3,1.18-4.3,4.59v8.89h-5.25v-18.18Z"/>
  <path class="cls-2" d="M358.21,264.45c0-5.78,4.07-9.62,9.12-9.62,4.63,0,8.4,3.18,8.4,9.25,0,.66-.03,1.25-.13,1.77h-12.37c.69,2.59,2.95,3.94,5.71,3.94,2,0,3.94-.69,5.68-1.8v4.3c-1.87,1.08-4,1.64-6.33,1.64-6.4,0-10.07-3.97-10.07-9.48ZM370.74,262.71c-.03-2.36-1.51-3.74-3.45-3.74s-3.68,1.44-4.17,3.74h7.61Z"/>
  <path class="cls-2" d="M378.49,270.75c0-1.67,1.31-2.95,2.95-2.95s2.95,1.28,2.95,2.95-1.31,2.95-2.95,2.95-2.95-1.31-2.95-2.95Z"/>
  <path class="cls-2" d="M412.22,273.48l-2.17-5.97h-9.16l-2.1,5.97h-5.58l9.16-24.48h6.17l9.29,24.48h-5.61ZM408.55,263.11l-3.08-8.53-3.08,8.53h6.17Z"/>
  <path class="cls-2" d="M436.64,261.34v12.14h-5.25v-10.63c0-2.23-.98-3.25-2.89-3.25s-3.15,1.31-3.15,3.12v10.76h-5.25v-18.18h4.07l.53,2.56h.1c1.08-1.71,2.99-3.02,5.48-3.02,3.94,0,6.37,2.43,6.37,6.5Z"/>
  <path class="cls-2" d="M447.6,280.37h-5.22l3.08-7.38-6.86-17.69h5.61l3.91,11.98h.13l3.91-11.98h5.38l-9.94,25.07Z"/>
  <path class="cls-2" d="M472.77,261.66h-.1l-3.35,11.81h-6.04l-4.86-18.18h5.51l2.72,12.63h.1l3.45-12.63h5.12l3.38,12.63h.1l2.85-12.63h5.22l-4.89,18.18h-5.97l-3.25-11.81Z"/>
  <path class="cls-2" d="M494.95,257.07h.03c1.02-1.28,2.79-2.23,4.86-2.23,3.91,0,6.4,2.33,6.4,6.5v12.14h-5.25v-10.67c0-2.23-.95-3.25-2.89-3.25-1.77,0-3.15,1.12-3.15,3.05v10.86h-5.25v-26.35h5.25v9.94Z"/>
  <path class="cls-2" d="M509.49,264.45c0-5.78,4.07-9.62,9.12-9.62,4.63,0,8.4,3.18,8.4,9.25,0,.66-.03,1.25-.13,1.77h-12.37c.69,2.59,2.95,3.94,5.71,3.94,2,0,3.94-.69,5.68-1.8v4.3c-1.87,1.08-4,1.64-6.33,1.64-6.4,0-10.08-3.97-10.08-9.48ZM522.03,262.71c-.03-2.36-1.51-3.74-3.45-3.74s-3.68,1.44-4.17,3.74h7.61Z"/>
  <path class="cls-2" d="M530.43,255.3h4.17l.53,2.72h.07c1.21-2.2,3.31-2.92,4.92-2.92.56,0,.98.03,1.38.13v4.92c-.49-.13-1.02-.16-1.51-.16-2.2,0-4.3,1.18-4.3,4.59v8.89h-5.25v-18.18Z"/>
  <path class="cls-2" d="M542.83,264.45c0-5.78,4.07-9.62,9.12-9.62,4.63,0,8.4,3.18,8.4,9.25,0,.66-.03,1.25-.13,1.77h-12.37c.69,2.59,2.95,3.94,5.71,3.94,2,0,3.94-.69,5.68-1.8v4.3c-1.87,1.08-4,1.64-6.33,1.64-6.4,0-10.08-3.97-10.08-9.48ZM555.37,262.71c-.03-2.36-1.51-3.74-3.45-3.74s-3.68,1.44-4.17,3.74h7.61Z"/>
  <path class="cls-2" d="M563.11,270.75c0-1.67,1.31-2.95,2.95-2.95s2.95,1.28,2.95,2.95-1.31,2.95-2.95,2.95-2.95-1.31-2.95-2.95Z"/>
  <path class="cls-1" d="M130.3,233.37h-23.64l-32.99-86.04h22.84l21.91,62.97,21.57-62.97h22.61l-32.29,86.04Z"/>
  <path class="cls-1" d="M156.83,201.31c0-20.3,14.3-34.14,32.87-34.14,16.84,0,30.56,11.42,30.56,32.87,0,2.54-.23,4.84-.58,6.92h-42.33c2.77,7.73,10.38,11.53,19.26,11.53,7.04,0,13.49-2.42,19.38-5.65v16.95c-6.57,3.58-14.07,5.31-22.26,5.31-23.64,0-36.91-14.3-36.91-33.79ZM199.96,194.62c-.23-6.46-4.27-10.84-10.38-10.84s-10.96,4.15-12.69,10.84h23.07Z"/>
  <path class="cls-1" d="M255.33,168.9h16.84v17.65h-16.84v19.84c0,7.27,5.19,10.15,12,10.15,1.73,0,3.69-.23,5.77-.58v17.88c-3.11.69-6.11,1.15-10.96,1.15-18.22,0-27.45-10.73-27.45-27.34v-21.11h-9v-17.65h9v-14.88h20.65v14.88Z"/>
  <path class="cls-1" d="M341.03,176.63h-.12l-16.49,56.75h-22.84l-25.6-86.04h22.14l15.57,59.86h.12l16.95-59.86h20.18l17.3,59.98h.23l14.88-59.98h21.34l-24.8,86.04h-22.03l-16.84-56.75Z"/>
  <path class="cls-1" d="M423.62,139.6c6.23,0,11.3,5.07,11.3,11.3s-5.08,11.3-11.3,11.3-11.42-4.96-11.42-11.3,4.96-11.3,11.42-11.3ZM412.89,168.9h21.45v64.47h-21.45v-64.47Z"/>
  <path class="cls-1" d="M494.32,172.01v17.65c-4.61-2.88-12.57-5.31-19.84-5.31-4.96,0-7.73,1.38-7.73,3.81s3.11,3.81,9.92,5.42c10.73,2.54,22.03,6.34,22.03,20.07s-10.38,21.45-28.72,21.45c-9.57,0-17.65-2.31-23.18-5.65v-19.03c5.65,4.15,12.8,7.5,22.26,7.5,5.65,0,8.88-1.5,8.88-4.15,0-3-4.04-3.92-12.11-6.23-10.03-2.77-19.61-7.27-19.61-19.15s9.92-21.22,27.34-21.22c7.61,0,15.57,1.85,20.76,4.84Z"/>
  <path class="cls-1" d="M506.09,201.31c0-20.3,14.3-34.14,32.87-34.14,16.84,0,30.56,11.42,30.56,32.87,0,2.54-.23,4.84-.58,6.92h-42.33c2.77,7.73,10.38,11.53,19.26,11.53,7.04,0,13.49-2.42,19.38-5.65v16.95c-6.57,3.58-14.07,5.31-22.26,5.31-23.64,0-36.91-14.3-36.91-33.79ZM549.23,194.62c-.23-6.46-4.27-10.84-10.38-10.84s-10.96,4.15-12.69,10.84h23.07Z"/>
  <path class="cls-2" d="M569.33,94.84c-.24-2.3-2.3-3.98-4.6-3.74-28.86,2.99-49,14.46-57.26,31.78-8.21-17.18-28.1-28.61-56.6-31.71-2.32-.25-4.37,1.41-4.62,3.71-.25,2.3,1.41,4.37,3.71,4.62,2.5.27,4.91.62,7.25,1.03-3.41,7-4.06,14.89-1.76,22.36,1.29,4.19,3.45,7.96,6.26,11.16-5.13,6.59-8.86,14.31-10.77,22.41-.58,2.45.94,4.91,3.39,5.49.35.08.7.12,1.05.12,2.07,0,3.94-1.42,4.44-3.52,1.58-6.72,4.66-13.13,8.89-18.64.55.34,1.09.68,1.67.99,4.57,2.42,9.49,3.58,14.34,3.58,6.58,0,13.04-2.15,18.37-6.19.12,1.23.19,2.48.19,3.75,0,2.32,1.88,4.19,4.19,4.19s4.19-1.88,4.19-4.19c0-1.4.08-2.78.22-4.13,5.43,4.24,12.13,6.5,18.94,6.5,4.83,0,9.71-1.14,14.2-3.51.62-.33,1.22-.68,1.8-1.04,4.3,5.58,7.3,11.87,8.91,18.69.5,2.1,2.37,3.52,4.44,3.52.35,0,.7-.04,1.05-.12,2.45-.58,3.97-3.04,3.39-5.49-1.92-8.14-5.5-15.64-10.65-22.28-.06-.08-.14-.14-.2-.22,7.84-9.03,9.93-22.22,4.39-33.51,2.4-.41,4.87-.75,7.43-1.02,2.3-.24,3.98-2.3,3.74-4.6ZM474.31,133.5c-5.24-2.77-9.08-7.41-10.83-13.07-1.74-5.66-1.18-11.66,1.59-16.9.21-.39.32-.8.4-1.21,6.35,1.67,11.98,3.9,16.84,6.63-3.65,1-6.34,4.31-6.34,8.28,0,4.76,3.86,8.62,8.62,8.62s8.62-3.86,8.62-8.62c0,0,0-.01,0-.02,3.4,3.52,5.98,7.47,7.68,11.82-6.76,7.3-17.59,9.23-26.58,4.48ZM541.12,133.5c-9.05,4.78-20.22,2.65-26.91-4.84,1.7-4.21,4.23-8.05,7.55-11.47,0,.01,0,.03,0,.04,0,4.76,3.86,8.62,8.62,8.62s8.62-3.86,8.62-8.62c0-3.97-2.7-7.28-6.36-8.28,4.97-2.79,10.76-5.06,17.3-6.75.07.45.2.9.42,1.33,5.71,10.81,1.57,24.25-9.24,29.97Z"/>
  <path class="cls-2" d="M473.67,91.25c.75,0,1.5-.2,2.19-.62,9.17-5.62,19.73-8.58,30.55-8.58s21.38,2.97,30.55,8.59c1.97,1.21,4.56.59,5.76-1.39,1.21-1.98.59-4.56-1.39-5.77-10.49-6.42-22.57-9.82-34.93-9.82s-24.44,3.4-34.93,9.82c-1.98,1.21-2.59,3.79-1.39,5.77.79,1.29,2.17,2,3.58,2Z"/>
</svg>